<svg version="1.1" viewBox="0.0 0.0 960.0 540.0" fill="none" stroke="none" stroke-linecap="square" stroke-miterlimit="10" xmlns:xlink="http://www.w3.org/1999/xlink" xmlns="http://www.w3.org/2000/svg"><clipPath id="g8229f421ee_0_111.0"><path d="m0 0l960.0 0l0 540.0l-960.0 0l0 -540.0z" clip-rule="nonzero"/></clipPath><g clip-path="url(#g8229f421ee_0_111.0)"><path fill="#ffffff" d="m0 0l960.0 0l0 540.0l-960.0 0z" fill-rule="evenodd"/><path fill="#000000" fill-opacity="0.0" d="m202.99213 75.88976l554.01575 0l0 121.95275l-554.01575 0z" fill-rule="evenodd"/><path fill="#000000" d="m271.53687 172.40253l0 -49.625008l17.09375 0q5.796875 0 8.84375 0.703125q4.265625 0.984375 7.28125 3.5625q3.921875 3.3125076 5.859375 8.484383q1.953125 5.15625 1.953125 11.796875q0 5.640625 -1.328125 10.015625q-1.3125 4.359375 -3.375 7.234375q-2.0625 2.859375 -4.515625 4.5q-2.453125 1.640625 -5.921875 2.484375q-3.46875 0.84375 -7.984375 0.84375l-17.90625 0zm6.578125 -5.859375l10.59375 0q4.90625 0 7.6875 -0.90625q2.796875 -0.921875 4.46875 -2.578125q2.328125 -2.328125 3.625 -6.265625q1.3125 -3.953125 1.3125 -9.578125q0 -7.78125 -2.5625 -11.953125q-2.546875 -4.1875 -6.203125 -5.609375q-2.640625 -1.015625 -8.5 -1.015625l-10.421875 0l0 37.90625zm42.75406 -36.765625l0 -7.0000076l6.09375 0l0 7.0000076l-6.09375 0zm0 42.625l0 -35.953125l6.09375 0l0 35.953125l-6.09375 0zm28.668121 -5.453125l0.875 5.390625q-2.5625 0.53125 -4.59375 0.53125q-3.328125 0 -5.15625 -1.046875q-1.828125 -1.046875 -2.578125 -2.75q-0.734375 -1.71875 -0.734375 -7.203125l0 -20.6875l-4.46875 0l0 -4.734375l4.46875 0l0 -8.906258l6.0625 -3.65625l0 12.562508l6.125 0l0 4.734375l-6.125 0l0 21.03125q0 2.609375 0.3125 3.359375q0.328125 0.734375 1.046875 1.171875q0.734375 0.4375 2.09375 0.4375q1.015625 0 2.671875 -0.234375zm29.417816 -7.71875l5.984375 0.78125q-0.96875 6.203125 -5.015625 9.703125q-4.046875 3.5 -9.9375 3.5q-7.390625 0 -11.875 -4.8125q-4.484375 -4.828125 -4.484375 -13.84375q0 -5.8125 1.921875 -10.171875q1.9375 -4.375 5.875 -6.5625q3.953125 -2.1875 8.59375 -2.1875q5.859375 0 9.578125 2.96875q3.71875 2.953125 4.78125 8.40625l-5.9375 0.921875q-0.84375 -3.625 -3.0 -5.453125q-2.140625 -1.828125 -5.1875 -1.828125q-4.609375 0 -7.484375 3.296875q-2.875 3.296875 -2.875 10.4375q0 7.25 2.765625 10.53125q2.78125 3.28125 7.25 3.28125q3.59375 0 6.0 -2.1875q2.40625 -2.203125 3.046875 -6.78125zm11.1953125 13.171875l0 -49.625008l6.09375 0l0 17.796883q4.265625 -4.9375 10.765625 -4.9375q4.0 0 6.9375 1.578125q2.953125 1.578125 4.21875 4.359375q1.28125 2.765625 1.28125 8.046875l0 22.78125l-6.09375 0l0 -22.78125q0 -4.578125 -1.984375 -6.65625q-1.984375 -2.078125 -5.609375 -2.078125q-2.703125 0 -5.09375 1.40625q-2.390625 1.40625 -3.40625 3.8125q-1.015625 2.390625 -1.015625 6.625l0 19.671875l-6.09375 0zm58.599854 0l0 -49.625008l17.09375 0q5.796875 0 8.84375 0.703125q4.265625 0.984375 7.28125 3.5625q3.921875 3.3125076 5.859375 8.484383q1.953125 5.15625 1.953125 11.796875q0 5.640625 -1.328125 10.015625q-1.3125 4.359375 -3.375 7.234375q-2.0625 2.859375 -4.515625 4.5q-2.453125 1.640625 -5.921875 2.484375q-3.46875 0.84375 -7.984375 0.84375l-17.90625 0zm6.578125 -5.859375l10.59375 0q4.90625 0 7.6875 -0.90625q2.796875 -0.921875 4.46875 -2.578125q2.328125 -2.328125 3.625 -6.265625q1.3125 -3.953125 1.3125 -9.578125q0 -7.78125 -2.5625 -11.953125q-2.546875 -4.1875 -6.203125 -5.609375q-2.640625 -1.015625 -8.5 -1.015625l-10.421875 0l0 37.90625zm67.332184 -5.71875l6.28125 0.78125q-1.484375 5.515625 -5.515625 8.5625q-4.015625 3.046875 -10.28125 3.046875q-7.890625 0 -12.515625 -4.859375q-4.625 -4.859375 -4.625 -13.625q0 -9.078125 4.671875 -14.078125q4.671875 -5.015625 12.125 -5.015625q7.21875 0 11.78125 4.90625q4.5625 4.90625 4.5625 13.8125q0 0.546875 -0.03125 1.625l-26.8125 0q0.34375 5.921875 3.359375 9.078125q3.015625 3.140625 7.515625 3.140625q3.34375 0 5.71875 -1.75q2.375 -1.765625 3.765625 -5.625zm-20.015625 -9.84375l20.078125 0q-0.40625 -4.546875 -2.296875 -6.8125q-2.921875 -3.515625 -7.5625 -3.515625q-4.1875 0 -7.046875 2.8125q-2.859375 2.796875 -3.171875 7.515625zm33.82263 21.421875l0 -49.625008l6.09375 0l0 49.625008l-6.09375 0zm15.574341 -42.625l0 -7.0000076l6.09375 0l0 7.0000076l-6.09375 0zm0 42.625l0 -35.953125l6.09375 0l0 35.953125l-6.09375 0zm25.355652 0l-13.6875 -35.953125l6.4375 0l7.71875 21.53125q1.25 3.484375 2.296875 7.25q0.8125 -2.84375 2.265625 -6.84375l8.0 -21.9375l6.265625 0l-13.609375 35.953125l-5.6875 0zm49.289062 -11.578125l6.28125 0.78125q-1.484375 5.515625 -5.515625 8.5625q-4.015625 3.046875 -10.28125 3.046875q-7.890625 0 -12.515625 -4.859375q-4.625 -4.859375 -4.625 -13.625q0 -9.078125 4.671875 -14.078125q4.671875 -5.015625 12.125 -5.015625q7.21875 0 11.78125 4.90625q4.5625 4.90625 4.5625 13.8125q0 0.546875 -0.03125 1.625l-26.8125 0q0.34375 5.921875 3.359375 9.078125q3.015625 3.140625 7.515625 3.140625q3.34375 0 5.71875 -1.75q2.375 -1.765625 3.765625 -5.625zm-20.015625 -9.84375l20.078125 0q-0.40625 -4.546875 -2.296875 -6.8125q-2.921875 -3.515625 -7.5625 -3.515625q-4.1875 0 -7.046875 2.8125q-2.859375 2.796875 -3.171875 7.515625zm33.88513 21.421875l0 -35.953125l5.484375 0l0 5.453125q2.09375 -3.828125 3.875 -5.046875q1.78125 -1.21875 3.90625 -1.21875q3.09375 0 6.265625 1.96875l-2.09375 5.65625q-2.234375 -1.328125 -4.46875 -1.328125q-2.0 0 -3.59375 1.203125q-1.59375 1.203125 -2.265625 3.328125q-1.015625 3.25 -1.015625 7.109375l0 18.828125l-6.09375 0zm22.883667 13.84375l-0.671875 -5.71875q2.0 0.546875 3.484375 0.546875q2.03125 0 3.25 -0.6875q1.21875 -0.671875 2.0 -1.890625q0.578125 -0.921875 1.859375 -4.53125q0.171875 -0.515625 0.546875 -1.5l-13.65625 -36.015625l6.578125 0l7.484375 20.828125q1.453125 3.953125 2.59375 8.328125q1.0625 -4.203125 2.515625 -8.203125l7.6875 -20.953125l6.09375 0l-13.6875 36.5625q-2.203125 5.921875 -3.421875 8.15625q-1.625 3.015625 -3.71875 4.421875q-2.09375 1.40625 -5.015625 1.40625q-1.75 0 -3.921875 -0.75z" fill-rule="nonzero"/><path fill="#000000" fill-opacity="0.0" d="m640.83466 188.84276l-386.01575 0" fill-rule="evenodd"/><path stroke="#595959" stroke-width="1.0" stroke-linejoin="round" stroke-linecap="butt" d="m640.83466 188.84276l-386.01575 0" fill-rule="evenodd"/><path fill="#000000" fill-opacity="0.0" d="m254.04724 111.68605l0.75590515 77.15671" fill-rule="evenodd"/><path stroke="#595959" stroke-width="1.0" stroke-linejoin="round" stroke-linecap="butt" d="m254.04724 111.68605l0.75590515 77.15671" fill-rule="evenodd"/><path fill="#000000" fill-opacity="0.0" d="m322.96057 102.0005l386.01575 0" fill-rule="evenodd"/><path stroke="#595959" stroke-width="1.0" stroke-linejoin="round" stroke-linecap="butt" d="m322.96057 102.0005l386.01575 0" fill-rule="evenodd"/><path fill="#000000" fill-opacity="0.0" d="m709.748 179.15721l-0.7559204 -77.15671" fill-rule="evenodd"/><path stroke="#595959" stroke-width="1.0" stroke-linejoin="round" stroke-linecap="butt" d="m709.748 179.15721l-0.7559204 -77.15671" fill-rule="evenodd"/></g></svg>